<?xml version="1.0" encoding="UTF-8"?>
<!DOCTYPE svg PUBLIC "-//W3C//DTD SVG 1.0//EN" "http://www.w3.org/TR/2001/REC-SVG-20010904/DTD/svg10.dtd">
<!-- Creator: CorelDRAW 2018 (64-Bit Evaluation Version) -->
<svg xmlns="http://www.w3.org/2000/svg" xml:space="preserve" width="682px" height="165px" version="1.0" style="shape-rendering:geometricPrecision; text-rendering:geometricPrecision; image-rendering:optimizeQuality; fill-rule:evenodd; clip-rule:evenodd"
viewBox="0 0 215.62 52.29"
 xmlns:xlink="http://www.w3.org/1999/xlink">
 <defs>
  <style type="text/css">
   <![CDATA[
    .fil0 {fill:black}
    .fil1 {fill:black;fill-rule:nonzero}
   ]]>
  </style>
 </defs>
 <g id="Layer_x0020_1">
  <metadata id="CorelCorpID_0Corel-Layer"/>
  <g id="_1859782589632">
   <g>
    <path class="fil0" d="M0.23 23.42l5.81 0.06 0.06 -7.62 17.57 -10.01 17.58 10.08 0.12 7.48 5.86 0.09c0.65,-11.35 -0.27,-11.04 -7.76,-15.38 -2.47,-1.43 -4.96,-2.91 -7.4,-4.28 -9.02,-5.05 -7.54,-5.15 -16.5,-0.11 -2.48,1.4 -4.89,2.79 -7.41,4.28 -7.32,4.34 -8.82,4.02 -7.93,15.41z"/>
    <path class="fil0" d="M47.25 28.95l-5.87 -0.08 -0.04 7.66 -17.56 10 -17.58 -10.07 -0.12 -7.53 -5.92 -0.1c0.35,11.49 -0.76,10.63 7.82,15.44 18.87,10.58 12.45,10.76 31.3,0.11 7.96,-4.5 8.34,-4.07 7.97,-15.43z"/>
    <polygon class="fil0" points="10.41,28.72 36.93,28.82 36.91,23.48 10.41,23.5 "/>
    <polygon class="fil0" points="16.11,20.34 31.27,20.32 31.27,14.96 16.26,14.95 "/>
    <polygon class="fil0" points="16.13,37.33 17.3,37.32 30.15,37.32 31.31,37.33 31.31,32.01 31.6,32.02 16.13,32.02 "/>
   </g>
   <g>
    <path class="fil1" d="M68.53 11.41c0.97,0.37 1.74,1.12 2.31,2.27 0.52,1.05 0.78,2.24 0.78,3.57 0,1.42 -0.29,2.66 -0.87,3.71 -0.62,1.15 -1.48,1.84 -2.58,2.06 -0.43,0.08 -0.91,0.12 -1.44,0.12l-6.55 0 0 -12.13 6.18 0c0.73,0 1.45,0.13 2.17,0.4zm0.31 5.88c0,-1.12 -0.16,-2.04 -0.5,-2.76 -0.43,-0.9 -1.08,-1.35 -1.94,-1.35l-3.39 0 0 7.86 3.61 0.02c0.79,0 1.37,-0.41 1.76,-1.23 0.31,-0.68 0.46,-1.52 0.46,-2.54z"/>
    <path id="1" class="fil1" d="M84.03 23.14l-5.92 0c-0.91,0 -1.79,-0.21 -2.63,-0.62 -0.92,-0.45 -1.62,-1.17 -2.1,-2.15 -0.48,-0.98 -0.72,-2.07 -0.72,-3.24 0,-1.17 0.23,-2.23 0.7,-3.18 0.51,-1.03 1.21,-1.78 2.12,-2.25 0.49,-0.25 0.97,-0.43 1.43,-0.54 0.46,-0.1 0.98,-0.15 1.57,-0.15l5.49 0 0 2.17 -5.07 0c-0.46,0 -0.83,0.06 -1.14,0.18 -0.31,0.11 -0.61,0.33 -0.91,0.64 -0.3,0.3 -0.51,0.6 -0.63,0.89 -0.11,0.29 -0.17,0.65 -0.17,1.08l7.98 0 0 2.17 -7.98 0c0,0.39 0.05,0.74 0.15,1.03 0.11,0.3 0.3,0.6 0.57,0.92 0.27,0.31 0.56,0.55 0.86,0.71 0.29,0.16 0.64,0.24 1.05,0.24l5.35 0 0 2.1z"/>
    <path id="2" class="fil1" d="M95.41 23.14l-5.37 0c-0.54,0 -1.08,-0.07 -1.61,-0.22 -1.03,-0.32 -1.85,-1.03 -2.45,-2.15 -0.54,-1.02 -0.82,-2.21 -0.82,-3.56 0,-1.3 0.25,-2.46 0.73,-3.46 0.54,-1.11 1.29,-1.87 2.28,-2.28 0.76,-0.31 1.54,-0.46 2.34,-0.46l4.86 0 0 2.32 -5.05 0c-0.82,0 -1.42,0.45 -1.79,1.34 -0.29,0.69 -0.43,1.6 -0.43,2.73 0,0.94 0.18,1.75 0.55,2.41 0.43,0.77 1.03,1.16 1.81,1.16l4.95 0 0 2.17z"/>
    <path id="3" class="fil1" d="M107.89 23.14l-5.92 0c-0.91,0 -1.79,-0.21 -2.64,-0.62 -0.91,-0.45 -1.61,-1.17 -2.09,-2.15 -0.48,-0.98 -0.72,-2.07 -0.72,-3.24 0,-1.17 0.23,-2.23 0.69,-3.18 0.51,-1.03 1.22,-1.78 2.12,-2.25 0.5,-0.25 0.98,-0.43 1.43,-0.54 0.46,-0.1 0.98,-0.15 1.57,-0.15l5.49 0 0 2.17 -5.07 0c-0.45,0 -0.83,0.06 -1.14,0.18 -0.3,0.11 -0.61,0.33 -0.91,0.64 -0.3,0.3 -0.51,0.6 -0.62,0.89 -0.12,0.29 -0.18,0.65 -0.18,1.08l7.99 0 0 2.17 -7.99 0c0,0.39 0.06,0.74 0.16,1.03 0.1,0.3 0.29,0.6 0.57,0.92 0.27,0.31 0.56,0.55 0.85,0.71 0.3,0.16 0.65,0.24 1.06,0.24l5.35 0 0 2.1z"/>
    <polygon id="4" class="fil1" points="121.99,23.14 118.13,23.14 112.27,14.17 112.27,23.14 109.37,23.14 109.37,11.01 113.27,11.01 119.04,20.1 119.04,11.01 121.99,11.01 "/>
    <polygon id="5" class="fil1" points="134.61,13.07 130.08,13.07 130.08,23.18 127.27,23.18 127.27,13.07 122.8,13.07 122.8,11.01 134.61,11.01 "/>
    <path id="6" class="fil1" d="M148.24 23.14l-3.43 0 -3.16 -4.74 -3.27 0 0 4.74 -2.88 0 0 -12.13 8.88 0c1.01,0 1.84,0.39 2.5,1.16 0.66,0.78 0.99,1.71 0.99,2.77 0,0.84 -0.28,1.56 -0.85,2.15 -0.56,0.58 -1.28,0.95 -2.15,1.1l3.37 4.95zm-3.87 -8.32c0,-0.57 -0.21,-1 -0.64,-1.31 -0.42,-0.3 -0.99,-0.46 -1.71,-0.46l-3.64 0 0 3.39 3.73 0c0.54,0 1.03,-0.12 1.46,-0.36 0.53,-0.3 0.8,-0.72 0.8,-1.26z"/>
    <path id="7" class="fil1" d="M160.65 23.14l-3.04 0 -1.02 -2.76 -5.02 0 -1.09 2.76 -3.01 0 4.99 -12.13 2.97 0 5.22 12.13zm-5 -4.88l-1.65 -4.27 -1.59 4.27 3.24 0z"/>
    <path id="8" class="fil1" d="M171.03 23.14l-4.39 0c-1.28,0 -2.31,-0.14 -3.09,-0.43 -0.98,-0.37 -1.69,-1.01 -2.12,-1.91 -0.16,-0.35 -0.27,-0.68 -0.34,-0.99 -0.06,-0.32 -0.09,-0.69 -0.09,-1.11l0 -7.69 3.12 0 0 7.59c0,0.34 0.04,0.65 0.13,0.91 0.08,0.26 0.22,0.52 0.43,0.77 0.29,0.37 0.62,0.61 1.01,0.73 0.38,0.11 0.87,0.17 1.46,0.17l3.88 0 0 1.96z"/>
    <polygon id="9" class="fil1" points="175.77,23.14 172.53,23.14 172.53,11.01 175.77,11.01 "/>
    <polygon id="10" class="fil1" points="189.89,23.18 177.56,23.18 177.56,21.06 185.74,13.35 177.48,13.35 177.48,11.01 189.85,11.01 189.85,13.48 181.76,21.09 189.89,21.09 "/>
    <path id="11" class="fil1" d="M202.7 23.14l-5.92 0c-0.91,0 -1.79,-0.21 -2.64,-0.62 -0.91,-0.45 -1.61,-1.17 -2.09,-2.15 -0.48,-0.98 -0.72,-2.07 -0.72,-3.24 0,-1.17 0.23,-2.23 0.69,-3.18 0.51,-1.03 1.22,-1.78 2.12,-2.25 0.5,-0.25 0.98,-0.43 1.44,-0.54 0.45,-0.1 0.98,-0.15 1.57,-0.15l5.48 0 0 2.17 -5.07 0c-0.45,0 -0.83,0.06 -1.13,0.18 -0.31,0.11 -0.61,0.33 -0.92,0.64 -0.3,0.3 -0.51,0.6 -0.62,0.89 -0.12,0.29 -0.17,0.65 -0.17,1.08l7.98 0 0 2.17 -7.98 0c0,0.39 0.05,0.74 0.15,1.03 0.11,0.3 0.3,0.6 0.57,0.92 0.27,0.31 0.56,0.55 0.85,0.71 0.3,0.16 0.65,0.24 1.06,0.24l5.35 0 0 2.1z"/>
    <path id="12" class="fil1" d="M212.53 11.41c0.97,0.37 1.74,1.12 2.31,2.27 0.52,1.05 0.78,2.24 0.78,3.57 0,1.42 -0.29,2.66 -0.87,3.71 -0.62,1.15 -1.49,1.84 -2.59,2.06 -0.42,0.08 -0.9,0.12 -1.44,0.12l-6.54 0 0 -12.13 6.18 0c0.73,0 1.45,0.13 2.17,0.4zm0.31 5.88c0,-1.12 -0.17,-2.04 -0.5,-2.76 -0.43,-0.9 -1.08,-1.35 -1.95,-1.35l-3.38 0 0 7.86 3.61 0.02c0.79,0 1.37,-0.41 1.75,-1.23 0.31,-0.68 0.47,-1.52 0.47,-2.54z"/>
    <path class="fil1" d="M73.78 44.66l-5.95 0c-1.74,0 -3.14,-0.2 -4.19,-0.59 -1.33,-0.5 -2.29,-1.36 -2.87,-2.59 -0.22,-0.47 -0.37,-0.92 -0.46,-1.35 -0.09,-0.43 -0.13,-0.93 -0.13,-1.49l0 -10.44 4.24 0 0 10.29c0,0.48 0.05,0.89 0.16,1.24 0.11,0.35 0.31,0.7 0.59,1.05 0.39,0.5 0.85,0.83 1.37,0.98 0.51,0.16 1.17,0.24 1.97,0.24l5.27 0 0 2.66z"/>
    <path id="1" class="fil1" d="M91.84 44.66l-4.12 0 -1.39 -3.74 -6.8 0 -1.49 3.74 -4.07 0 6.76 -16.46 4.02 0 7.09 16.46zm-6.78 -6.62l-2.24 -5.79 -2.16 5.79 4.4 0z"/>
    <path id="2" class="fil1" d="M108.76 39.09c0,2.16 -0.86,3.69 -2.59,4.58 -1.29,0.66 -3.13,0.99 -5.53,0.99 -2.34,0 -4.21,-0.39 -5.63,-1.16 -1.8,-0.96 -2.7,-2.49 -2.7,-4.58l0 -10.72 4.16 0 0 10.2c0,1.29 0.47,2.22 1.39,2.8 0.68,0.42 1.52,0.63 2.52,0.63 1.71,0 2.89,-0.33 3.53,-1.01 0.55,-0.58 0.83,-1.43 0.83,-2.56l0 -10.06 4.02 0 0 10.89z"/>
    <polygon id="3" class="fil1" points="128.27,44.66 123.05,44.66 115.09,32.49 115.09,44.66 111.16,44.66 111.16,28.2 116.46,28.2 124.27,40.54 124.27,28.2 128.27,28.2 "/>
    <path id="4" class="fil1" d="M144.07 44.66l-7.28 0c-0.73,0 -1.46,-0.1 -2.19,-0.31 -1.39,-0.42 -2.5,-1.39 -3.31,-2.91 -0.74,-1.38 -1.11,-2.99 -1.11,-4.82 0,-1.77 0.33,-3.34 0.99,-4.7 0.72,-1.51 1.75,-2.53 3.08,-3.08 1.04,-0.42 2.1,-0.64 3.18,-0.64l6.59 0 0 3.16 -6.85 0c-1.11,0 -1.92,0.6 -2.42,1.81 -0.4,0.94 -0.59,2.17 -0.59,3.7 0,1.28 0.25,2.37 0.75,3.27 0.58,1.05 1.4,1.58 2.45,1.58l6.71 0 0 2.94z"/>
    <polygon id="5" class="fil1" points="161.58,44.66 157.51,44.66 157.51,37.97 149.97,37.97 149.97,44.66 146.02,44.66 146.02,28.2 149.97,28.2 149.97,35.03 157.51,35.03 157.51,28.2 161.58,28.2 "/>
    <path id="6" class="fil1" d="M180.71 33.65c0,1.46 -0.56,2.7 -1.68,3.73 -1.13,1.02 -2.47,1.53 -4.02,1.53l-7.01 0 0 5.75 -4.05 0 0 -16.46 11.28 0c1.76,0 3.14,0.61 4.16,1.81 0.88,1.05 1.32,2.27 1.32,3.64zm-4.59 -0.21c0,-0.7 -0.29,-1.28 -0.87,-1.76 -0.58,-0.46 -1.25,-0.7 -2,-0.7l-5.25 0 0 5.09 5.37 0c0.77,0 1.42,-0.25 1.95,-0.75 0.54,-0.5 0.8,-1.13 0.8,-1.88z"/>
    <path id="7" class="fil1" d="M198.62 44.66l-4.11 0 -1.39 -3.74 -6.81 0 -1.48 3.74 -4.07 0 6.76 -16.46 4.02 0 7.08 16.46zm-6.77 -6.62l-2.24 -5.79 -2.17 5.79 4.41 0z"/>
    <path id="8" class="fil1" d="M210.42 28.75c1.31,0.5 2.36,1.52 3.13,3.08 0.7,1.42 1.06,3.04 1.06,4.84 0,1.92 -0.4,3.6 -1.18,5.03 -0.85,1.56 -2.02,2.49 -3.51,2.79 -0.58,0.11 -1.23,0.17 -1.95,0.17l-8.87 0 0 -16.46 8.37 0c0.99,0 1.97,0.19 2.95,0.55zm0.42 7.98c0,-1.53 -0.23,-2.77 -0.68,-3.75 -0.58,-1.22 -1.46,-1.83 -2.64,-1.83l-4.59 0 0 10.66 4.9 0.02c1.06,0 1.86,-0.55 2.37,-1.67 0.43,-0.91 0.64,-2.05 0.64,-3.43z"/>
   </g>
  </g>
 </g>
</svg>
