<?xml version="1.0" encoding="UTF-8"?>
<!DOCTYPE svg PUBLIC "-//W3C//DTD SVG 1.0//EN" "http://www.w3.org/TR/2001/REC-SVG-20010904/DTD/svg10.dtd">
<!-- Creator: CorelDRAW 2018 (64-Bit Evaluation Version) -->
<svg xmlns="http://www.w3.org/2000/svg" xml:space="preserve" width="452px" height="110px" version="1.0" style="shape-rendering:geometricPrecision; text-rendering:geometricPrecision; image-rendering:optimizeQuality; fill-rule:evenodd; clip-rule:evenodd"
viewBox="0 0 94.65 22.95"
 xmlns:xlink="http://www.w3.org/1999/xlink">
 <defs>
  <style type="text/css">
   <![CDATA[
    .fil0 {fill:white}
    .fil1 {fill:white;fill-rule:nonzero}
   ]]>
  </style>
 </defs>
 <g id="Layer_x0020_1">
  <metadata id="CorelCorpID_0Corel-Layer"/>
  <g id="_1859782586752">
   <g>
    <path class="fil0" d="M0.1 10.28l2.55 0.03 0.03 -3.35 7.71 -4.39 7.72 4.42 0.05 3.29 2.57 0.04c0.29,-4.99 -0.12,-4.85 -3.41,-6.76 -1.08,-0.62 -2.17,-1.27 -3.24,-1.87 -3.96,-2.22 -3.31,-2.27 -7.25,-0.05 -1.08,0.61 -2.14,1.22 -3.25,1.87 -3.21,1.91 -3.87,1.77 -3.48,6.77z"/>
    <path class="fil0" d="M20.74 12.71l-2.58 -0.04 -0.01 3.36 -7.71 4.4 -7.72 -4.43 -0.05 -3.3 -2.6 -0.05c0.16,5.05 -0.33,4.67 3.43,6.78 8.28,4.65 5.47,4.72 13.74,0.05 3.49,-1.98 3.66,-1.78 3.5,-6.77z"/>
    <polygon class="fil0" points="4.57,12.61 16.21,12.65 16.2,10.31 4.57,10.31 "/>
    <polygon class="fil0" points="7.07,8.93 13.73,8.92 13.73,6.57 7.14,6.56 "/>
    <polygon class="fil0" points="7.08,16.39 7.59,16.38 13.23,16.38 13.74,16.38 13.74,14.05 13.87,14.06 7.08,14.06 "/>
   </g>
   <g>
    <path class="fil1" d="M30.08 5.01c0.43,0.16 0.77,0.49 1.01,0.99 0.23,0.46 0.35,0.99 0.35,1.57 0,0.62 -0.13,1.17 -0.38,1.63 -0.28,0.51 -0.66,0.81 -1.14,0.9 -0.19,0.04 -0.4,0.06 -0.63,0.06l-2.87 0 0 -5.33 2.71 0c0.32,0 0.64,0.06 0.95,0.18zm0.14 2.58c0,-0.49 -0.08,-0.9 -0.22,-1.21 -0.19,-0.4 -0.48,-0.6 -0.86,-0.6l-1.48 0 0 3.46 1.58 0c0.35,0 0.6,-0.18 0.77,-0.54 0.14,-0.29 0.21,-0.66 0.21,-1.11z"/>
    <path id="1" class="fil1" d="M36.89 10.16l-2.6 0c-0.4,0 -0.79,-0.09 -1.16,-0.28 -0.4,-0.19 -0.71,-0.51 -0.92,-0.94 -0.21,-0.43 -0.32,-0.91 -0.32,-1.42 0,-0.51 0.11,-0.98 0.31,-1.4 0.22,-0.45 0.53,-0.78 0.93,-0.98 0.22,-0.12 0.43,-0.19 0.63,-0.24 0.2,-0.05 0.43,-0.07 0.69,-0.07l2.41 0 0 0.95 -2.23 0c-0.2,0 -0.36,0.03 -0.5,0.08 -0.13,0.05 -0.27,0.15 -0.4,0.28 -0.13,0.14 -0.22,0.27 -0.27,0.4 -0.05,0.12 -0.08,0.28 -0.08,0.47l3.51 0 0 0.95 -3.51 0c0,0.18 0.02,0.33 0.07,0.46 0.05,0.13 0.13,0.26 0.25,0.4 0.12,0.13 0.24,0.24 0.37,0.31 0.13,0.07 0.29,0.11 0.47,0.11l2.35 0 0 0.92z"/>
    <path id="2" class="fil1" d="M41.88 10.16l-2.36 0c-0.24,0 -0.47,-0.04 -0.71,-0.1 -0.45,-0.14 -0.81,-0.45 -1.07,-0.94 -0.24,-0.45 -0.36,-0.97 -0.36,-1.56 0,-0.58 0.11,-1.09 0.32,-1.53 0.24,-0.48 0.57,-0.82 1,-0.99 0.34,-0.14 0.68,-0.21 1.03,-0.21l2.13 0 0 1.02 -2.21 0c-0.37,0 -0.63,0.2 -0.79,0.59 -0.13,0.3 -0.19,0.7 -0.19,1.2 0,0.41 0.08,0.76 0.24,1.05 0.19,0.35 0.46,0.52 0.8,0.52l2.17 0 0 0.95z"/>
    <path id="3" class="fil1" d="M47.36 10.16l-2.6 0c-0.4,0 -0.79,-0.09 -1.16,-0.28 -0.4,-0.19 -0.71,-0.51 -0.92,-0.94 -0.21,-0.43 -0.31,-0.91 -0.31,-1.42 0,-0.51 0.1,-0.98 0.3,-1.4 0.22,-0.45 0.53,-0.78 0.93,-0.98 0.22,-0.12 0.43,-0.19 0.63,-0.24 0.2,-0.05 0.43,-0.07 0.69,-0.07l2.41 0 0 0.95 -2.23 0c-0.2,0 -0.36,0.03 -0.5,0.08 -0.13,0.05 -0.27,0.15 -0.4,0.28 -0.13,0.14 -0.22,0.27 -0.27,0.4 -0.05,0.12 -0.08,0.28 -0.08,0.47l3.51 0 0 0.95 -3.51 0c0,0.18 0.03,0.33 0.07,0.46 0.05,0.13 0.13,0.26 0.25,0.4 0.12,0.13 0.24,0.24 0.37,0.31 0.14,0.07 0.29,0.11 0.47,0.11l2.35 0 0 0.92z"/>
    <polygon id="4" class="fil1" points="53.55,10.16 51.85,10.16 49.28,6.22 49.28,10.16 48.01,10.16 48.01,4.83 49.72,4.83 52.25,8.82 52.25,4.83 53.55,4.83 "/>
    <polygon id="5" class="fil1" points="59.09,5.74 57.1,5.74 57.1,10.17 55.86,10.17 55.86,5.74 53.9,5.74 53.9,4.83 59.09,4.83 "/>
    <path id="6" class="fil1" d="M65.07 10.16l-1.51 0 -1.38 -2.08 -1.44 0 0 2.08 -1.26 0 0 -5.33 3.9 0c0.44,0 0.8,0.17 1.09,0.51 0.29,0.35 0.44,0.75 0.44,1.22 0,0.37 -0.13,0.68 -0.37,0.94 -0.25,0.26 -0.57,0.42 -0.95,0.49l1.48 2.17zm-1.7 -3.66c0,-0.24 -0.09,-0.43 -0.28,-0.57 -0.18,-0.13 -0.43,-0.2 -0.75,-0.2l-1.6 0 0 1.49 1.64 0c0.24,0 0.45,-0.06 0.64,-0.16 0.23,-0.13 0.35,-0.32 0.35,-0.56z"/>
    <path id="7" class="fil1" d="M70.52 10.16l-1.34 0 -0.45 -1.21 -2.2 0 -0.48 1.21 -1.32 0 2.19 -5.33 1.3 0 2.3 5.33zm-2.2 -2.14l-0.72 -1.88 -0.7 1.88 1.42 0z"/>
    <path id="8" class="fil1" d="M75.07 10.16l-1.92 0c-0.57,0 -1.02,-0.07 -1.36,-0.19 -0.43,-0.17 -0.74,-0.44 -0.93,-0.84 -0.07,-0.15 -0.12,-0.3 -0.15,-0.44 -0.03,-0.14 -0.04,-0.3 -0.04,-0.48l0 -3.38 1.37 0 0 3.33c0,0.15 0.02,0.29 0.06,0.4 0.03,0.12 0.09,0.23 0.19,0.34 0.12,0.16 0.27,0.27 0.44,0.32 0.17,0.05 0.38,0.08 0.64,0.08l1.7 0 0 0.86z"/>
    <polygon id="9" class="fil1" points="77.16,10.16 75.73,10.16 75.73,4.83 77.16,4.83 "/>
    <polygon id="10" class="fil1" points="83.35,10.17 77.94,10.17 77.94,9.24 81.53,5.86 77.9,5.86 77.9,4.83 83.34,4.83 83.34,5.92 79.78,9.26 83.35,9.26 "/>
    <path id="11" class="fil1" d="M88.98 10.16l-2.6 0c-0.4,0 -0.79,-0.09 -1.16,-0.28 -0.4,-0.19 -0.71,-0.51 -0.92,-0.94 -0.21,-0.43 -0.32,-0.91 -0.32,-1.42 0,-0.51 0.11,-0.98 0.31,-1.4 0.22,-0.45 0.53,-0.78 0.93,-0.98 0.22,-0.12 0.43,-0.19 0.63,-0.24 0.2,-0.05 0.43,-0.07 0.69,-0.07l2.4 0 0 0.95 -2.22 0c-0.2,0 -0.36,0.03 -0.5,0.08 -0.13,0.05 -0.27,0.15 -0.4,0.28 -0.13,0.14 -0.22,0.27 -0.27,0.4 -0.05,0.12 -0.08,0.28 -0.08,0.47l3.51 0 0 0.95 -3.51 0c0,0.18 0.02,0.33 0.07,0.46 0.04,0.13 0.13,0.26 0.25,0.4 0.12,0.13 0.24,0.24 0.37,0.31 0.13,0.07 0.29,0.11 0.47,0.11l2.35 0 0 0.92z"/>
    <path id="12" class="fil1" d="M93.29 5.01c0.43,0.16 0.76,0.49 1.01,0.99 0.23,0.46 0.35,0.99 0.35,1.57 0,0.62 -0.13,1.17 -0.39,1.63 -0.27,0.51 -0.65,0.81 -1.13,0.9 -0.19,0.04 -0.4,0.06 -0.63,0.06l-2.88 0 0 -5.33 2.72 0c0.32,0 0.63,0.06 0.95,0.18zm0.14 2.58c0,-0.49 -0.08,-0.9 -0.22,-1.21 -0.19,-0.4 -0.48,-0.6 -0.86,-0.6l-1.48 0 0 3.46 1.58 0c0.35,0 0.6,-0.18 0.77,-0.54 0.14,-0.29 0.21,-0.66 0.21,-1.11z"/>
    <path class="fil1" d="M32.39 19.6l-2.62 0c-0.76,0 -1.37,-0.08 -1.84,-0.26 -0.58,-0.22 -1,-0.59 -1.26,-1.13 -0.09,-0.21 -0.16,-0.41 -0.2,-0.59 -0.04,-0.19 -0.05,-0.41 -0.05,-0.66l0 -4.58 1.86 0 0 4.52c0,0.2 0.02,0.38 0.07,0.54 0.05,0.15 0.13,0.31 0.26,0.46 0.17,0.22 0.37,0.36 0.59,0.43 0.23,0.07 0.52,0.1 0.87,0.1l2.32 0 0 1.17z"/>
    <path id="1" class="fil1" d="M40.31 19.6l-1.81 0 -0.61 -1.64 -2.98 0 -0.65 1.64 -1.79 0 2.96 -7.22 1.77 0 3.11 7.22zm-2.97 -2.9l-0.99 -2.54 -0.95 2.54 1.94 0z"/>
    <path id="2" class="fil1" d="M47.74 17.16c0,0.95 -0.38,1.62 -1.14,2.01 -0.56,0.29 -1.37,0.43 -2.42,0.43 -1.03,0 -1.85,-0.17 -2.47,-0.5 -0.8,-0.43 -1.19,-1.1 -1.19,-2.02l0 -4.7 1.83 0 0 4.48c0,0.56 0.2,0.97 0.61,1.22 0.29,0.19 0.66,0.28 1.1,0.28 0.75,0 1.27,-0.15 1.55,-0.44 0.24,-0.26 0.36,-0.63 0.36,-1.13l0 -4.41 1.77 0 0 4.78z"/>
    <polygon id="3" class="fil1" points="56.3,19.6 54.01,19.6 50.52,14.26 50.52,19.6 48.79,19.6 48.79,12.38 51.12,12.38 54.55,17.79 54.55,12.38 56.3,12.38 "/>
    <path id="4" class="fil1" d="M63.24 19.6l-3.2 0c-0.32,0 -0.64,-0.04 -0.96,-0.13 -0.61,-0.19 -1.1,-0.61 -1.45,-1.28 -0.33,-0.61 -0.49,-1.31 -0.49,-2.12 0,-0.77 0.15,-1.46 0.44,-2.06 0.31,-0.66 0.76,-1.11 1.35,-1.35 0.45,-0.19 0.92,-0.28 1.39,-0.28l2.9 0 0 1.38 -3.01 0c-0.49,0 -0.84,0.27 -1.06,0.8 -0.18,0.41 -0.26,0.95 -0.26,1.62 0,0.57 0.11,1.05 0.33,1.44 0.25,0.46 0.61,0.69 1.07,0.69l2.95 0 0 1.29z"/>
    <polygon id="5" class="fil1" points="70.92,19.6 69.14,19.6 69.14,16.67 65.83,16.67 65.83,19.6 64.09,19.6 64.09,12.38 65.83,12.38 65.83,15.38 69.14,15.38 69.14,12.38 70.92,12.38 "/>
    <path id="6" class="fil1" d="M79.32 14.77c0,0.64 -0.24,1.18 -0.74,1.64 -0.49,0.45 -1.08,0.67 -1.76,0.67l-3.08 0 0 2.52 -1.77 0 0 -7.22 4.95 0c0.77,0 1.38,0.27 1.82,0.79 0.39,0.46 0.58,1 0.58,1.6zm-2.01 -0.09c0,-0.31 -0.13,-0.57 -0.38,-0.77 -0.26,-0.21 -0.55,-0.31 -0.88,-0.31l-2.31 0 0 2.23 2.36 0c0.34,0 0.62,-0.11 0.86,-0.33 0.23,-0.22 0.35,-0.49 0.35,-0.82z"/>
    <path id="7" class="fil1" d="M87.19 19.6l-1.81 0 -0.61 -1.64 -2.99 0 -0.65 1.64 -1.79 0 2.97 -7.22 1.77 0 3.11 7.22zm-2.98 -2.9l-0.98 -2.54 -0.95 2.54 1.93 0z"/>
    <path id="8" class="fil1" d="M92.36 12.62c0.58,0.22 1.04,0.67 1.38,1.35 0.31,0.62 0.46,1.33 0.46,2.12 0,0.85 -0.17,1.59 -0.52,2.21 -0.37,0.69 -0.88,1.1 -1.54,1.23 -0.25,0.05 -0.54,0.07 -0.85,0.07l-3.9 0 0 -7.22 3.68 0c0.43,0 0.86,0.08 1.29,0.24zm0.19 3.5c0,-0.67 -0.1,-1.22 -0.3,-1.64 -0.26,-0.54 -0.64,-0.81 -1.16,-0.81l-2.01 0 0 4.68 2.14 0.01c0.47,0 0.82,-0.24 1.05,-0.73 0.18,-0.4 0.28,-0.9 0.28,-1.51z"/>
   </g>
  </g>
 </g>
</svg>
